<?xml version="1.0" encoding="utf-8"?>
<!-- Generator: Adobe Illustrator 14.0.0, SVG Export Plug-In . SVG Version: 6.00 Build 43363)  -->
<!DOCTYPE svg PUBLIC "-//W3C//DTD SVG 1.1//EN" "http://www.w3.org/Graphics/SVG/1.1/DTD/svg11.dtd">
<svg version="1.1" id="starbucks" xmlns="http://www.w3.org/2000/svg" xmlns:xlink="http://www.w3.org/1999/xlink" x="0px" y="0px"
	 width="400px" height="300px" viewBox="0 0 400 300" enable-background="new 0 0 400 300" xml:space="preserve">
<path fill="#FFFFFF" d="M326.713,150.19c0,70.026-56.789,126.715-126.71,126.715c-70.026,0-126.716-56.795-126.716-126.715
	c0-70.028,56.795-126.711,126.716-126.711S326.713,80.163,326.713,150.19"/>
<path fill="#00643C" d="M212.705,78.242c-1.065-0.212-6.404-1.066-12.703-1.066s-11.636,0.854-12.702,1.066
	c-0.642,0.106-0.854-0.536-0.43-0.854c0.43-0.318,13.132-10.034,13.132-10.034s12.703,9.715,13.126,10.034
	C213.559,77.706,213.347,78.348,212.705,78.242 M190.712,141.011c0,0-0.636,0.212-0.854,0.854c2.669,2.027,4.483,6.724,10.04,6.724
	c5.55,0,7.364-4.696,10.033-6.724c-0.213-0.642-0.854-0.854-0.854-0.854s-3.521,0.854-9.179,0.854
	C194.235,141.864,190.712,141.011,190.712,141.011 M199.897,133.217c-1.497,0-1.927-0.53-2.888-0.53c-0.96,0-2.986,0.854-3.41,1.49
	c0,0.324,0.212,0.643,0.424,0.96c2.245,0.324,3.311,1.603,5.874,1.603c2.557,0,3.629-1.277,5.868-1.603
	c0.323-0.317,0.43-0.636,0.43-0.96c-0.43-0.742-2.352-1.49-3.417-1.49C201.818,132.581,201.493,133.217,199.897,133.217
	 M326.501,157.13c-0.213,2.986-0.425,6.086-0.749,8.967c-14.305,2.352-19.43-10.357-34.159-9.82c0.854,3.1,1.604,6.299,2.134,9.504
	c12.172,0,16.974,11.312,30.536,9.603c-0.748,3.417-1.604,6.835-2.563,10.252c-10.676,1.065-14.411-9.503-26.795-9.291
	c0.104,1.819,0.104,3.522,0.104,5.338c0,0.966,0,2.032-0.104,2.992c10.569-0.104,13.979,9.608,24.02,9.18
	c-1.283,3.417-2.669,6.728-4.165,10.033c-7.259-0.424-9.716-9.604-20.603-8.86c-0.318,2.351-0.749,4.701-1.285,7.047
	c9.504-0.638,11.53,8.111,18.364,8.754c-1.708,3.205-3.629,6.299-5.55,9.285c-4.061-2.133-7.582-8.644-15.159-9.072
	c0.748-2.451,1.491-4.908,2.027-7.364c-6.835,0-14.519-2.669-21.027-8.543c2.133-12.062-16.55-24.231-16.55-33.087
	c0-9.504,4.802-14.842,4.802-27.756c0-9.608-4.695-19.967-11.63-27.012c-1.392-1.384-2.781-2.451-4.378-3.523
	c6.403,8.006,11.418,17.404,11.418,28.396c0,12.172-5.655,18.576-5.655,29.782c0,11.212,16.438,20.927,16.438,32.457
	c0,4.589-1.491,8.968-6.192,17.716c7.37,7.37,16.974,11.317,23.166,11.317c2.032,0,3.099-0.642,3.847-2.134
	c0.638-1.389,1.173-2.773,1.709-4.164c6.616,0.212,9.709,6.298,13.339,8.755c-2.026,2.669-4.159,5.338-6.403,7.899
	c-2.451-2.773-5.764-7.369-10.677-8.647c-0.854,1.708-1.813,3.312-2.774,5.021c4.166,1.172,7.047,5.338,9.291,8.111
	c-2.352,2.451-4.913,4.803-7.477,7.152c-1.597-2.456-4.159-5.661-6.935-7.477c-1.072,1.391-2.139,2.774-3.205,4.165
	c2.457,1.603,4.483,4.591,5.874,6.94c-2.993,2.449-6.086,4.695-9.291,6.828c-1.603-12.914-19.106-21.67-14.411-36.616
	c-1.603,2.669-3.417,5.979-3.417,9.935c0,10.78,11.529,19.424,12.384,30.1c-2.345,1.391-4.802,2.775-7.363,4.06
	c-0.431-11.854-12.598-24.769-12.598-34.378c0-10.781,14.199-21.669,14.199-34.479c0-12.813-16.338-21.668-16.338-32.881
	c0-11.205,6.94-17.615,6.94-32.025c0-10.569-5.015-21.133-12.702-27.967c-1.392-1.172-2.669-2.133-4.377-2.987
	c7.258,8.749,11.528,16.649,11.528,28.716c0,13.557-8.007,21.027-8.007,34.266c0,13.237,16.015,20.604,16.015,32.881
	c0,12.271-14.947,22.736-14.947,35.438c0,11.529,13.133,23.061,13.345,36.723c-2.881,1.283-5.762,2.456-8.755,3.416
	c1.709-13.769-13.126-28.072-13.126-39.391c0-12.277,15.477-22.947,15.477-36.188c0-13.238-15.694-19.43-15.694-33.092
	c0-13.664,9.716-21.246,9.716-36.299c0-11.742-5.762-22.312-14.305-28.822c-0.213-0.106-0.318-0.318-0.53-0.424
	c-0.748-0.642-1.497,0.106-0.854,0.854c5.975,7.471,9.18,15.047,9.18,26.259c0,13.77-11.101,24.98-11.101,38.325
	c0,15.795,14.941,20.278,14.941,33.198c0,12.914-16.015,23.271-16.015,37.041c0,12.701,15.159,26.899,12.49,41.528
	c-2.986,0.742-6.08,1.491-9.179,2.027c2.881-18.259-11.954-31.491-11.954-43.451c0-12.914,16.543-24.55,16.543-37.146
	c0-11.961-11.848-15.801-13.45-28.08c-0.212-1.707-1.603-2.881-3.417-2.557c-2.451,0.424-5.55,2.026-10.352,2.026
	c-4.914,0-7.9-1.603-10.357-2.026c-1.813-0.324-3.199,0.961-3.417,2.557c-1.597,12.279-13.451,16.119-13.451,28.08
	c0,12.701,16.551,24.231,16.551,37.146c0,11.96-14.842,25.087-11.954,43.451c-3.1-0.536-6.192-1.285-9.186-2.027
	c-2.563-14.733,12.49-28.827,12.49-41.528c0-13.77-16.014-24.127-16.014-37.041c0-12.92,14.946-17.403,14.946-33.198
	c0-13.345-11.1-24.558-11.1-38.325c0-11.212,3.199-18.788,9.179-26.259c0.536-0.748-0.105-1.391-0.854-0.854
	c-0.212,0.106-0.318,0.318-0.536,0.424c-8.431,6.51-14.305,17.08-14.305,28.822c0,15.053,9.715,22.635,9.715,36.299
	c0,13.662-15.689,19.854-15.689,33.092c0,13.24,15.478,23.908,15.478,36.188c0,11.316-14.841,25.518-13.132,39.391
	c-2.987-1.065-5.868-2.133-8.749-3.416c0.212-13.662,13.338-25.192,13.338-36.723c0-12.701-14.941-23.054-14.941-35.438
	c0-12.385,16.013-19.644,16.013-32.881c0-13.238-8.006-20.709-8.006-34.266c0-12.066,4.271-19.967,11.53-28.716
	c-1.603,0.854-2.993,1.815-4.377,2.987c-7.688,6.834-12.702,17.51-12.702,27.967c0,14.41,6.935,20.82,6.935,32.025
	c0,11.213-16.332,20.067-16.332,32.881c0,12.81,14.198,23.591,14.198,34.479c0,9.717-12.172,22.637-12.596,34.378
	c-2.457-1.284-4.914-2.563-7.364-4.06c0.96-10.781,12.49-19.318,12.49-30.1c0-3.955-1.814-7.266-3.417-9.935
	c4.696,14.946-12.813,23.808-14.411,36.616c-3.205-2.133-6.298-4.379-9.291-6.828c1.392-2.352,3.523-5.338,5.874-6.939
	c-1.065-1.392-2.245-2.67-3.205-4.166c-2.881,1.709-5.338,4.913-6.939,7.477c-2.558-2.244-5.12-4.701-7.471-7.152
	c2.245-2.773,5.125-7.046,9.291-8.111c-0.966-1.604-1.927-3.313-2.78-5.021c-4.907,1.278-8.22,5.874-10.669,8.647
	c-2.245-2.563-4.377-5.125-6.41-7.899c3.741-2.457,6.729-8.437,13.451-8.755c0.535,1.391,1.178,2.775,1.708,4.165
	c0.748,1.597,1.813,2.133,3.847,2.133c6.186,0,15.795-4.054,23.16-11.317c-4.801-8.748-6.187-13.127-6.187-17.716
	c0-11.53,16.438-21.245,16.438-32.457c0-11.206-5.656-17.61-5.656-29.782c0-10.994,4.908-20.391,11.418-28.396
	c-1.597,0.96-2.987,2.139-4.377,3.523c-7.041,7.045-11.636,17.51-11.636,27.012c0,12.914,4.808,18.146,4.808,27.756
	c0,8.854-18.682,21.025-16.549,33.087c-6.51,5.979-14.305,8.543-21.133,8.543c0.636,2.456,1.279,4.913,2.026,7.364
	c-7.688,0.43-11.212,6.939-15.158,9.072c-2.026-2.986-3.842-6.08-5.551-9.285c6.834-0.748,8.861-9.502,18.358-8.754
	c-0.53-2.346-0.96-4.696-1.279-7.047c-10.994-0.742-13.449,8.543-20.603,8.86c-1.497-3.306-2.881-6.616-4.166-10.033
	c10.033,0.431,13.451-9.284,23.914-9.18c0-0.96,0-1.92,0-2.992c0-1.815,0.105-3.519,0.105-5.338
	c-12.384-0.317-16.12,10.356-26.795,9.291c-0.96-3.312-1.813-6.729-2.563-10.252c13.451,1.709,18.364-9.709,30.529-9.603
	c0.536-3.205,1.284-6.404,2.14-9.504c-14.735-0.643-19.854,12.172-34.159,9.82c-0.43-2.986-0.643-5.979-0.854-8.967
	c16.648,1.814,22.947-11.848,38.106-10.139c1.39-3.629,3.099-7.152,5.021-10.57c-19-3.311-25.518,12.597-43.232,10.14
	c1.486-68.319,57.533-123.081,126.282-123.081c68.854,0,124.789,54.762,126.71,123.188c-17.723,2.457-24.231-13.45-43.232-10.139
	c1.921,3.416,3.523,6.939,5.015,10.568C303.547,145.282,309.74,159.051,326.501,157.13 M145.452,103.971
	c-9.291-3.847-20.603-2.887-30.318,3.305c-1.496-8.967-6.403-16.974-13.345-21.775c-0.96-0.642-1.92,0-1.92,1.066
	c1.497,19-9.609,35.444-23.271,49.961c14.093,4.271,26.047-13.875,44.192-7.578C127.518,119.235,135.844,110.692,145.452,103.971
	 M199.897,92.547c-11.748,0-21.675,6.616-24.232,15.265c-0.218,0.642,0.106,1.066,0.854,0.749c2.133-0.96,4.482-1.391,7.151-1.391
	c4.803,0,9.073,1.814,11.524,4.808c1.072,3.629,1.178,8.967-0.106,11.954c-1.921-0.43-2.669-1.921-4.589-1.921
	c-1.921,0-3.417,1.385-6.723,1.385c-3.312,0-3.629-1.597-5.769-1.597c-2.563,0-2.986,2.557-2.986,5.55
	c0,13.126,12.06,31.172,24.875,31.172c12.809,0,24.868-18.046,24.868-31.172c0-2.993-0.637-5.443-3.199-5.768
	c-1.284,0.959-2.563,1.814-5.55,1.814c-3.312,0-4.165-1.385-6.086-1.385c-2.352,0-2.14,4.908-4.913,5.232
	c-1.815-4.377-1.921-10.146-0.426-15.16c2.457-3.098,6.724-4.807,11.53-4.807c2.563,0,5.014,0.43,7.152,1.391
	c0.748,0.318,1.065-0.106,0.854-0.749C221.566,99.163,211.639,92.547,199.897,92.547 M218.685,111.335
	c-2.888,0-6.086,0.854-8.226,3.199c-0.212,0.643-0.212,1.603,0.112,2.139c5.119-1.708,9.603-1.814,11.848,0.643
	c1.173-1.072,1.49-2.033,1.49-3.099C223.91,112.508,222.096,111.335,218.685,111.335 M177.479,117.315
	c2.451-2.457,7.683-2.352,13.021-0.431c0.212-2.669-4.59-5.656-9.392-5.656c-3.523,0-5.231,1.173-5.231,2.882
	C175.983,115.282,176.301,116.243,177.479,117.315 M258.607,72.904c-9.285,0.643-17.398,3.841-23.914,9.179
	c2.78-7.9,6.304-14.729,10.787-21.351c-11.854,1.284-21.675,5.556-28.935,13.026l-5.655-14.841l12.489-11.1l-16.761-1.172
	l-6.723-15.589l-6.729,15.589l-16.761,1.172l12.49,11.1l-5.656,14.841c-7.258-7.365-17.08-11.742-28.928-13.026
	c4.483,6.622,8.007,13.563,10.781,21.351c-6.516-5.338-14.629-8.537-23.913-9.179c5.55,7.152,10.464,14.841,14.198,23.06
	c0.424,0.96,1.279,1.278,2.239,0.748c12.708-6.298,27.013-9.933,42.278-9.933c15.159,0,29.464,3.523,42.271,9.933
	c0.96,0.53,1.814,0.212,2.238-0.748C248.036,87.746,253.056,80.057,258.607,72.904 M278.891,128.95
	c18.252-6.297,30.212,11.742,44.299,7.578c-13.662-14.518-24.764-30.96-23.271-49.961c0.105-1.066-0.961-1.708-1.813-1.066
	c-6.936,4.802-11.85,12.809-13.346,21.775c-9.604-6.192-20.921-7.046-30.313-3.305C264.05,110.692,272.269,119.235,278.891,128.95"
	/>
</svg>
